<?xml version="1.0" encoding="utf-8"?>
<svg viewBox="12.344 18.03 92.122 68.152" xmlns="http://www.w3.org/2000/svg">
  <defs>
    <linearGradient gradientUnits="userSpaceOnUse" x1="55.347" y1="39.03" x2="55.347" y2="72.537" id="gradient-0">
      <stop offset="0" style="stop-color: rgba(255, 255, 255, 1)"/>
      <stop offset="1" style="stop-color: rgba(204, 204, 204, 1)"/>
    </linearGradient>
  </defs>
  <g style="" transform="matrix(0.312333, 0.132308, -0.103029, 0.243214, 14.057821, 39.79818)">
    <path d="M 114.003 83.273 C 108.356 89.049 99.869 77.801 92.903 73.693 C 91.733 73.003 89.766 73.464 88.66 74.124 C 85.732 75.892 83.266 90.217 79.96 98.773 C 76.074 108.857 70.317 115.288 65.357 110.474 C 63.982 109.139 63.908 107.215 64.51 104.868 C 64.51 104.868 60.346 113.868 54.847 111.847 C 52.262 110.855 50.784 108.129 51.362 105.421 C 51.733 103.655 52.219 101.915 52.819 100.213 C 50.929 104.168 47.27 106.268 44.357 104.206 C 42.325 102.769 42.11 100.174 43.215 95.428 C 44.836 89.189 46.831 83.052 49.187 77.052 C 46.213 85.391 41.354 89.901 37.803 90.62 C 36.56 90.977 35.221 90.597 34.35 89.64 C 30.856 85.506 39.45 72.391 43.127 63.158 C 46.677 54.528 49.31 45.548 50.984 36.368 C 51.601 32.512 51.865 28.608 51.773 24.704 C 51.658 17.737 56.977 11.881 63.922 11.327 C 67.114 11.085 70.318 11.061 73.512 11.254 C 80.195 11.704 85.486 17.079 85.829 23.768 C 86.174 29.845 86.859 35.9 88.087 38.323 C 91.342 44.739 95.212 50.768 101.257 59.539 C 107.844 69.099 119.394 77.78 114.003 83.273 Z" style="fill: rgba(255, 158, 168, 0.48);" transform="matrix(-1, 0, 0, -1, 148.926506, 123.268059)"/>
    <path d="M 99.739 46.217 C 99.899 45.797 100.049 45.407 100.179 45.057 C 100.039 45.457 99.889 45.837 99.739 46.217 Z" style="fill:#ff9ea7" transform="matrix(-1, 0, 0, -1, 199.917999, 91.273998)"/>
    <path d="M 115.029 84.298 C 110.029 89.41 103.717 84.164 98.147 79.534 C 96.247 77.86 94.224 76.331 92.096 74.961 C 91.176 74.722 90.198 74.875 89.396 75.384 C 88.096 76.168 86.225 82.915 84.859 87.841 C 83.749 91.824 82.611 95.952 81.316 99.289 C 79.476 104.061 75.576 112.247 70.146 113.438 C 67.986 113.883 65.752 113.155 64.269 111.524 C 63.758 111.028 63.354 110.433 63.082 109.776 C 61.043 112.238 57.982 114.587 54.282 113.228 C 51.213 112.061 49.343 108.944 49.758 105.688 C 49.283 105.945 48.779 106.146 48.258 106.288 C 46.6 106.739 44.826 106.413 43.438 105.401 C 40.311 103.195 40.757 99.124 41.704 95.064 C 42.145 93.172 42.714 91.146 43.332 89.131 C 41.824 90.588 39.951 91.612 37.911 92.094 C 36.169 92.509 34.34 91.928 33.156 90.584 C 30.013 86.865 33.813 79.114 37.836 70.908 C 39.23 68.065 40.671 65.125 41.685 62.579 C 45.193 54.042 47.799 45.162 49.461 36.084 C 50.062 32.322 50.318 28.512 50.227 24.704 C 50.093 16.942 56.021 10.415 63.76 9.804 C 65.528 9.666 67.332 9.597 69.16 9.597 C 70.615 9.597 72.084 9.64 73.56 9.728 C 81.007 10.216 86.907 16.205 87.285 23.658 C 87.832 33.281 88.835 36.537 89.385 37.62 C 92.729 44.224 96.711 50.334 102.446 58.664 C 104.402 61.385 106.5 64.001 108.732 66.501 C 114.442 73.135 119.837 79.4 115.029 84.298 Z M 106.459 68.458 C 104.156 65.877 101.992 63.176 99.976 60.366 C 94.164 51.932 90.129 45.724 86.701 38.978 C 85.539 36.678 84.726 31.584 84.284 23.83 C 83.992 17.897 79.304 13.122 73.377 12.724 C 70.25 12.535 67.115 12.559 63.992 12.796 C 57.826 13.311 53.117 18.522 53.228 24.709 C 53.318 28.688 53.047 32.667 52.417 36.597 C 50.719 45.88 48.056 54.96 44.47 63.689 C 43.411 66.343 41.946 69.335 40.527 72.224 C 37.59 78.224 33.567 86.424 35.445 88.646 C 35.942 89.163 36.687 89.356 37.373 89.146 C 40.373 88.603 44.797 84.436 47.678 76.653 C 47.784 76.366 48.405 74.743 48.466 74.561 C 48.832 73.465 50.246 73.177 51.012 74.042 C 51.367 74.443 51.482 75.003 51.312 75.512 C 51.244 75.712 46.212 88.927 44.626 95.75 C 43.426 100.9 44.18 102.26 45.173 102.962 C 45.841 103.459 46.702 103.619 47.504 103.395 C 49.275 102.717 50.686 101.337 51.404 99.582 C 52.287 96.982 53.413 94.053 54.642 90.871 C 56.277 86.634 57.97 82.252 59.357 77.911 C 59.761 76.829 61.185 76.591 61.919 77.483 C 62.227 77.856 62.336 78.356 62.211 78.824 C 60.797 83.249 59.088 87.673 57.436 91.951 C 55.371 97.298 53.421 102.351 52.788 105.681 C 52.355 107.666 53.426 109.673 55.317 110.419 C 59.149 111.834 62.717 105.212 63.056 104.311 C 64.056 101.633 64.935 98.241 66.168 94.742 C 67.668 90.49 69.368 85.674 70.536 81.014 C 70.701 80.279 71.369 79.769 72.121 79.804 C 73.049 79.873 73.691 80.761 73.465 81.664 C 72.26 86.485 70.526 91.401 68.998 95.739 C 67.764 99.239 66.598 102.548 65.916 105.22 C 65.237 107.868 65.794 108.833 66.354 109.378 C 67.124 110.29 68.323 110.723 69.499 110.512 C 72.377 109.881 75.831 105.168 78.514 98.212 C 79.75 95.012 80.873 90.96 81.96 87.042 C 82.885 83.277 84.068 79.58 85.501 75.978 C 77.801 76.247 71.694 72.906 67.326 65.998 C 66.894 65.344 67.008 64.472 67.593 63.951 C 68.292 63.381 69.331 63.552 69.811 64.316 C 73.679 70.48 78.918 73.322 85.763 72.964 C 86.925 72.873 88.069 72.623 89.163 72.222 C 90.602 71.644 92.218 71.701 93.613 72.38 C 95.882 73.829 98.039 75.449 100.064 77.224 C 105.957 82.124 110.031 85.116 112.887 82.196 C 115.57 79.464 112.248 75.183 106.459 68.458 Z" style="fill: rgb(35, 31, 32);" transform="matrix(-1, 0, 0, -1, 148.881115, 123.224297)"/>
  </g>
  <path class="cls-1" d="M 86.474 22.275 L 82.617 20.387 C 82.508 20.333 82.379 20.333 82.27 20.387 L 78.412 22.275 C 78.283 22.339 78.2 22.469 78.2 22.611 L 78.2 27.142 C 78.225 27.789 78.78 28.295 79.442 28.274 L 85.444 28.274 C 86.106 28.295 86.661 27.789 86.686 27.142 L 86.686 22.611 C 86.686 22.469 86.604 22.339 86.474 22.275 Z" style="fill: rgb(216, 225, 239);"/>
  <path class="cls-3" d="M 81.672 30.162 L 77.429 30.162 C 77.132 30.162 76.946 29.847 77.094 29.596 C 77.164 29.479 77.291 29.407 77.429 29.407 L 81.672 29.407 C 81.969 29.407 82.154 29.721 82.006 29.973 C 81.937 30.09 81.809 30.162 81.672 30.162 Z" style="fill: rgb(14, 106, 224);"/>
  <path class="cls-3" d="M 87.458 30.162 L 83.215 30.162 C 82.918 30.162 82.732 29.847 82.881 29.596 C 82.95 29.479 83.077 29.407 83.215 29.407 L 87.458 29.407 C 87.755 29.407 87.941 29.721 87.792 29.973 C 87.723 30.09 87.596 30.162 87.458 30.162 Z" style="fill: rgb(14, 106, 224);"/>
  <path class="cls-2" d="M 84.758 23.744 C 84.332 23.744 83.986 24.081 83.986 24.499 C 83.987 24.564 83.997 24.628 84.013 24.691 L 83.712 24.986 C 83.64 25.057 83.6 25.153 83.601 25.254 L 83.601 28.274 L 84.372 28.274 L 84.372 25.409 L 84.561 25.227 C 84.625 25.244 84.691 25.253 84.758 25.254 C 85.352 25.254 85.723 24.624 85.426 24.121 C 85.288 23.887 85.034 23.744 84.758 23.744 Z" style="fill: rgb(5, 147, 255);"/>
  <path class="cls-2" d="M 81.286 28.274 L 81.286 25.254 C 81.287 25.153 81.246 25.057 81.174 24.986 L 80.873 24.691 C 80.89 24.628 80.899 24.564 80.9 24.499 C 80.9 23.917 80.257 23.554 79.743 23.845 C 79.229 24.135 79.229 24.862 79.743 25.153 C 79.86 25.219 79.993 25.254 80.129 25.254 C 80.195 25.253 80.261 25.244 80.326 25.227 L 80.515 25.409 L 80.515 28.274 Z" style="fill: rgb(5, 147, 255);"/>
  <path class="cls-2" d="M 82.829 28.72 L 82.829 23.638 C 83.343 23.347 83.343 22.62 82.829 22.33 C 82.315 22.039 81.672 22.402 81.672 22.984 C 81.672 23.253 81.819 23.503 82.058 23.638 L 82.058 28.72 C 81.218 29.01 81.014 30.082 81.691 30.648 C 82.368 31.215 83.418 30.852 83.581 29.994 C 83.685 29.446 83.366 28.906 82.829 28.72 Z" style="fill: rgb(5, 147, 255);"/>
  <path class="cls-1" d="M 74.515 74.509 L 62.806 74.467 C 62.5 74.385 62.925 74.385 62.614 74.467 L 51.69 74.509 C 51.324 74.606 51.085 74.805 51.081 75.023 L 50.947 81.989 C 50.999 82.983 52.554 83.762 54.431 83.728 L 71.423 83.728 C 73.295 83.762 74.883 82.983 74.971 81.989 L 75.105 75.023 C 75.109 74.805 74.882 74.606 74.515 74.509 Z" style="fill: rgb(216, 225, 239);"/>
  <g transform="matrix(0.385747, 0, 0, 0.377557, 48.131454, 20.689503)">
    <path class="cls-2" d="M 65.432 158.638 C 64.328 158.638 63.432 157.743 63.432 156.638 C 63.435 156.466 63.459 156.295 63.502 156.128 L 62.722 155.348 C 62.535 155.16 62.431 154.904 62.432 154.638 L 62.432 146.638 L 64.432 146.638 L 64.432 154.228 L 64.922 154.708 C 65.089 154.664 65.26 154.641 65.432 154.638 C 66.972 154.638 67.934 156.305 67.164 157.638 C 66.807 158.257 66.147 158.638 65.432 158.638 Z" style="fill: rgb(35, 31, 32);"/>
    <path class="cls-2" d="M 51.743 158.612 C 50.639 158.612 49.743 157.717 49.743 156.612 C 49.746 156.44 49.77 156.269 49.813 156.102 L 49.033 155.322 C 48.846 155.134 48.742 154.878 48.743 154.612 L 48.743 146.612 L 50.743 146.612 L 50.743 154.202 L 51.233 154.682 C 51.4 154.638 51.571 154.615 51.743 154.612 C 53.283 154.612 54.245 156.279 53.475 157.612 C 53.118 158.231 52.458 158.612 51.743 158.612 Z" style="fill: rgb(35, 31, 32);"/>
    <path class="cls-2" d="M 12.601 146.419 C 11.497 146.419 10.601 147.314 10.601 148.419 C 10.604 148.591 10.628 148.762 10.671 148.929 L 9.891 149.709 C 9.704 149.897 9.6 150.153 9.601 150.419 L 9.601 158.419 L 11.601 158.419 L 11.601 150.829 L 12.091 150.349 C 12.258 150.393 12.429 150.416 12.601 150.419 C 14.141 150.419 15.103 148.752 14.333 147.419 C 13.976 146.8 13.316 146.419 12.601 146.419 Z" style="fill: rgb(35, 31, 32);" transform="matrix(-1, 0, 0, -1, 24.20507, 304.838013)"/>
    <path class="cls-2" d="M 26.29 146.393 C 25.186 146.393 24.29 147.288 24.29 148.393 C 24.293 148.565 24.317 148.736 24.36 148.903 L 23.58 149.683 C 23.393 149.871 23.289 150.127 23.29 150.393 L 23.29 158.393 L 25.29 158.393 L 25.29 150.803 L 25.78 150.323 C 25.947 150.367 26.118 150.39 26.29 150.393 C 27.83 150.393 28.792 148.726 28.022 147.393 C 27.665 146.774 27.005 146.393 26.29 146.393 Z" style="fill: rgb(35, 31, 32);" transform="matrix(-1, 0, 0, -1, 51.583069, 304.786011)"/>
    <path class="cls-2" d="M 40.112 146.051 L 40.112 159.511 C 41.445 160.281 41.445 162.206 40.112 162.975 C 38.779 163.745 37.112 162.783 37.112 161.243 C 37.112 160.529 37.493 159.869 38.112 159.511 L 38.112 146.051 C 35.935 145.281 41.505 145.559 40.112 146.051 Z" style="fill: rgb(35, 31, 32);"/>
    <path class="cls-2" d="M 21.076 137.091 L 21.076 150.551 C 22.409 151.321 22.409 153.246 21.076 154.015 C 19.743 154.785 18.076 153.823 18.076 152.283 C 18.076 151.569 18.457 150.909 19.076 150.551 L 19.076 137.091 C 16.899 136.321 22.469 136.599 21.076 137.091 Z" style="fill: rgb(35, 31, 32);"/>
    <path class="cls-2" d="M 34.556 137.319 L 34.556 150.779 C 35.889 151.549 35.889 153.474 34.556 154.243 C 33.223 155.013 31.556 154.051 31.556 152.511 C 31.556 151.797 31.937 151.137 32.556 150.779 L 32.556 137.319 C 30.379 136.549 35.949 136.827 34.556 137.319 Z" style="fill: rgb(35, 31, 32);"/>
    <path class="cls-2" d="M 46.031 137.091 L 46.031 150.551 C 47.364 151.321 47.364 153.246 46.031 154.015 C 44.698 154.785 43.031 153.823 43.031 152.283 C 43.031 151.569 43.412 150.909 44.031 150.551 L 44.031 137.091 C 41.854 136.321 47.424 136.599 46.031 137.091 Z" style="fill: rgb(35, 31, 32);"/>
    <path class="cls-2" d="M 58.62 136.977 L 58.62 150.437 C 59.953 151.207 59.953 153.132 58.62 153.901 C 57.287 154.671 55.62 153.709 55.62 152.169 C 55.62 151.455 56.001 150.795 56.62 150.437 L 56.62 136.977 C 54.443 136.207 60.013 136.485 58.62 136.977 Z" style="fill: rgb(35, 31, 32);"/>
  </g>
  <path d="M 89.497 40.385 C 89.267 40.518 88.987 40.554 88.728 40.481 L 86.784 39.917 C 86.335 39.776 85.89 40.141 85.983 40.574 C 85.986 40.591 85.99 40.608 85.996 40.624 L 86.614 42.449 C 86.695 42.68 86.665 42.933 86.531 43.142 C 83.026 48.522 87.077 55.426 93.823 55.568 C 100.569 55.71 104.95 48.985 101.71 43.462 C 99.316 39.384 93.766 37.986 89.498 40.385 Z" style="fill: rgb(171, 174, 180);"/>
  <g style="" transform="matrix(0.663188, 0, 0, 0.641337, 31.787214, 17.088337)">
    <path d="M 88.842 35.202 C 88.496 35.41 88.074 35.465 87.683 35.352 L 84.751 34.473 C 84.074 34.252 83.403 34.821 83.543 35.496 C 83.548 35.523 83.555 35.549 83.563 35.574 L 84.495 38.42 C 84.617 38.781 84.572 39.175 84.37 39.501 C 79.085 47.89 85.194 58.654 95.366 58.876 C 105.538 59.098 112.144 48.611 107.258 40 C 103.648 33.642 95.279 31.461 88.844 35.202 Z" style="fill: rgb(255, 227, 222);"/>
    <path d="M 95.654 59.55 C 84.968 59.588 78.245 48.451 83.553 39.502 C 83.62 39.389 83.688 39.279 83.757 39.169 C 83.854 39.008 83.875 38.816 83.813 38.64 L 82.879 35.793 C 82.515 34.638 83.582 33.538 84.8 33.81 C 84.853 33.822 84.905 33.837 84.957 33.854 L 87.869 34.726 C 88.071 34.781 88.287 34.751 88.463 34.642 L 88.463 34.642 C 97.623 29.284 109.358 35.503 109.587 45.835 C 109.754 53.369 103.463 59.56 95.654 59.548 Z M 84.425 35.114 C 84.367 35.114 84.311 35.135 84.271 35.175 C 84.206 35.231 84.183 35.319 84.209 35.399 L 85.137 38.235 C 85.319 38.781 85.248 39.376 84.942 39.868 C 79.934 47.818 85.723 58.018 95.362 58.227 C 98.501 58.296 101.552 57.224 103.912 55.225 C 111.151 49.08 108.783 37.678 99.648 34.7 C 96.163 33.564 92.337 33.964 89.185 35.793 L 89.185 35.793 C 88.668 36.099 88.04 36.177 87.459 36.009 L 84.526 35.13 C 84.493 35.119 84.459 35.114 84.425 35.114 Z" style=""/>
    <g transform="matrix(0.300227, 0, 0, 0.290237, 53.709232, 26.767204)" style="">
      <circle cx="143.073" cy="73" r="2" style="fill:#107c82"/>
      <circle cx="131.073" cy="67" r="4" style="fill:#107c82"/>
      <circle cx="136.073" cy="55" r="2" style="fill:#107c82"/>
      <path d="M 167.073 62 C 168.612 62 169.574 63.667 168.805 65 C 168.447 65.619 167.787 66 167.073 66 L 164.073 66 C 161.578 66.114 159.113 66.585 156.753 67.4 C 156.348 69.641 155.538 71.789 154.363 73.74 C 155.588 76.456 157.228 78.966 159.223 81.18 L 161.053 83 L 161.073 83 C 163.382 83 164.825 85.5 163.671 87.5 C 162.516 89.5 159.629 89.5 158.475 87.5 C 158.211 87.044 158.073 86.527 158.073 86 L 158.073 85.98 L 156.253 84.15 C 154.124 82.226 151.717 80.635 149.113 79.43 C 146.839 81.068 144.229 82.178 141.473 82.68 C 140.658 85.04 140.187 87.506 140.073 90 L 140.073 93 C 140.073 94.54 138.406 95.502 137.073 94.732 C 136.454 94.375 136.073 93.715 136.073 93 L 136.073 90 C 135.959 87.506 135.487 85.04 134.673 82.68 C 131.916 82.178 129.306 81.068 127.033 79.43 C 124.429 80.635 122.021 82.226 119.893 84.15 L 118.073 85.98 L 118.073 86 C 118.073 88.309 115.573 89.753 113.573 88.598 C 111.573 87.443 111.573 84.557 113.573 83.402 C 114.029 83.139 114.546 83 115.073 83 L 115.093 83 L 116.923 81.18 C 118.917 78.966 120.557 76.456 121.783 73.74 C 120.608 71.789 119.798 69.641 119.393 67.4 C 117.032 66.585 114.567 66.114 112.073 66 L 109.073 66 C 107.533 66 106.571 64.333 107.341 63 C 107.698 62.381 108.358 62 109.073 62 L 112.073 62 C 114.567 61.886 117.032 61.415 119.393 60.6 C 119.798 58.359 120.608 56.211 121.783 54.26 C 120.557 51.544 118.917 49.034 116.923 46.82 L 115.093 45 L 115.073 45 C 112.763 45 111.32 42.5 112.475 40.5 C 113.629 38.5 116.516 38.5 117.671 40.5 C 117.934 40.956 118.073 41.473 118.073 42 L 118.073 42.02 L 119.893 43.85 C 122.021 45.774 124.429 47.365 127.033 48.57 C 129.306 46.932 131.916 45.822 134.673 45.32 C 135.487 42.96 135.959 40.494 136.073 38 L 136.073 35 C 136.073 33.46 137.739 32.498 139.073 33.268 C 139.691 33.625 140.073 34.285 140.073 35 L 140.073 38 C 140.187 40.494 140.658 42.96 141.473 45.32 C 144.229 45.822 146.839 46.932 149.113 48.57 C 151.717 47.365 154.124 45.774 156.253 43.85 L 158.073 42.02 L 158.073 42 C 158.073 39.691 160.573 38.247 162.573 39.402 C 164.573 40.557 164.573 43.443 162.573 44.598 C 162.117 44.861 161.599 45 161.073 45 L 161.053 45 L 159.223 46.82 C 157.228 49.034 155.588 51.544 154.363 54.26 C 155.538 56.211 156.348 58.359 156.753 60.6 C 159.113 61.415 161.578 61.886 164.073 62 Z M 150.073 61 C 150.073 58.691 147.573 57.247 145.573 58.402 C 143.573 59.557 143.573 62.443 145.573 63.598 C 146.029 63.861 146.546 64 147.073 64 C 148.729 64 150.073 62.657 150.073 61 Z M 145.073 73 C 145.073 71.46 143.406 70.498 142.073 71.268 C 140.739 72.038 140.739 73.962 142.073 74.732 C 142.377 74.908 142.722 75 143.073 75 C 144.176 74.997 145.069 74.103 145.073 73 Z M 138.073 55 C 138.073 53.46 136.406 52.498 135.073 53.268 C 133.739 54.038 133.739 55.962 135.073 56.732 C 135.377 56.908 135.722 57 136.073 57 C 137.176 56.997 138.069 56.103 138.073 55 Z M 135.073 67 C 135.073 63.921 131.739 61.996 129.073 63.536 C 126.406 65.075 126.406 68.925 129.073 70.464 C 129.681 70.815 130.37 71 131.073 71 C 133.282 71 135.073 69.209 135.073 67 Z" style="fill:#34c1ad"/>
      <circle cx="147.073" cy="61" r="3" style="fill:#107c82"/>
      <path d="M 138.073 48 C 125.756 48 118.058 61.333 124.216 72 C 130.375 82.667 145.771 82.667 151.929 72 C 153.333 69.568 154.073 66.809 154.073 64 C 154.073 55.163 146.909 48 138.073 48 Z M 131.073 71 C 127.993 71 126.069 67.667 127.609 65 C 129.148 62.333 132.997 62.333 134.537 65 C 134.888 65.608 135.073 66.298 135.073 67 C 135.073 69.209 133.282 71 131.073 71 Z M 136.073 57 C 134.533 57 133.571 55.333 134.341 54 C 135.11 52.667 137.035 52.667 137.805 54 C 137.98 54.304 138.073 54.649 138.073 55 C 138.069 56.103 137.176 56.997 136.073 57 Z M 143.073 75 C 141.533 75 140.571 73.333 141.341 72 C 142.11 70.667 144.035 70.667 144.805 72 C 144.98 72.304 145.073 72.649 145.073 73 C 145.069 74.103 144.176 74.997 143.073 75 Z M 147.073 64 C 144.763 64 143.32 61.5 144.475 59.5 C 145.629 57.5 148.516 57.5 149.671 59.5 C 149.934 59.956 150.073 60.473 150.073 61 C 150.073 62.657 148.729 64 147.073 64 Z" style="fill:#21abab"/>
      <circle cx="148.073" cy="69" r="2" style="fill:#13969d"/>
      <circle cx="128.073" cy="58" r="2" style="fill:#13969d"/>
      <circle cx="142.073" cy="54" r="2" style="fill:#13969d"/>
      <circle cx="139.073" cy="63" r="1" style="fill:#13969d"/>
      <circle cx="136.073" cy="75" r="1" style="fill:#13969d"/>
      <path d="M 150.073 61 C 150.075 63.309 147.577 64.756 145.576 63.603 C 143.574 62.451 143.571 59.564 145.57 58.407 C 146.798 57.696 148.358 57.943 149.306 59" style="fill:none;stroke:#000;stroke-linejoin:round;stroke-width:2px"/>
      <circle cx="143.073" cy="73" r="2" style="fill:none;stroke:#000;stroke-linejoin:round;stroke-width:2px"/>
      <circle cx="136.073" cy="55" r="2" style="fill:none;stroke:#000;stroke-linejoin:round;stroke-width:2px"/>
      <path d="M 127.608 65 C 129.146 62.333 132.995 62.331 134.536 64.997 C 136.077 67.663 134.154 70.997 131.074 70.998 C 128.865 70.999 127.073 69.209 127.073 67" style="fill:none;stroke:#000;stroke-linejoin:round;stroke-width:2px"/>
      <path d="M 154.073 82.337 C 154.845 82.883 155.572 83.491 156.248 84.153 L 158.073 85.977 L 158.073 86 C 158.073 88.309 160.573 89.753 162.573 88.598 C 164.573 87.443 164.573 84.557 162.573 83.402 C 162.117 83.139 161.599 83 161.073 83 L 161.05 83 L 159.226 81.177 C 157.232 78.961 155.591 76.451 154.359 73.737 C 155.532 71.787 156.343 69.641 156.752 67.403 C 159.111 66.583 161.577 66.11 164.073 66 L 167.073 66 C 168.612 66 169.574 64.333 168.805 63 C 168.447 62.381 167.787 62 167.073 62 L 164.073 62 C 161.577 61.891 159.111 61.419 156.752 60.6 C 156.343 58.362 155.532 56.216 154.359 54.266 C 155.591 51.552 157.232 49.042 159.226 46.826 L 161.05 45 L 161.073 45 C 163.382 45 164.825 42.5 163.671 40.5 C 162.516 38.5 159.629 38.5 158.475 40.5 C 158.211 40.956 158.073 41.473 158.073 42 L 158.073 42.023 L 156.25 43.847 C 154.123 45.771 151.717 47.362 149.115 48.567 C 146.841 46.932 144.231 45.823 141.476 45.321 C 140.655 42.962 140.183 40.495 140.073 38 L 140.073 35 C 140.073 33.46 138.406 32.498 137.073 33.268 C 136.454 33.625 136.073 34.285 136.073 35 L 136.073 38 C 135.964 40.495 135.492 42.962 134.673 45.321 C 131.917 45.823 129.308 46.932 127.034 48.567 C 125.303 47.736 123.644 46.764 122.073 45.662" style="fill:none;stroke:#000;stroke-linejoin:round;stroke-width:2px"/>
      <path d="M 120.073 44.022 C 120.012 43.964 119.953 43.905 119.894 43.847 L 118.073 42.023 L 118.073 42 C 118.073 39.691 115.573 38.247 113.573 39.402 C 111.573 40.557 111.573 43.443 113.573 44.598 C 114.029 44.861 114.546 45 115.073 45 L 115.096 45 L 116.92 46.823 C 118.913 49.039 120.555 51.549 121.787 54.263 C 120.613 56.214 119.802 58.361 119.394 60.6 C 117.034 61.419 114.568 61.891 112.073 62 L 109.073 62 C 107.533 62 106.571 63.667 107.341 65 C 107.698 65.619 108.358 66 109.073 66 L 112.073 66 C 114.568 66.111 117.034 66.584 119.394 67.405 C 119.803 69.643 120.613 71.789 121.787 73.739 C 120.555 76.453 118.913 78.963 116.92 81.179 L 115.096 83 L 115.073 83 C 112.763 83 111.32 85.5 112.475 87.5 C 113.629 89.5 116.516 89.5 117.671 87.5 C 117.934 87.044 118.073 86.527 118.073 86 L 118.073 85.977 L 119.896 84.153 C 122.022 82.229 124.428 80.638 127.031 79.433 C 129.306 81.069 131.916 82.177 134.673 82.679 C 135.492 85.038 135.964 87.505 136.073 90 L 136.073 93 C 136.073 94.54 137.739 95.502 139.073 94.732 C 139.691 94.375 140.073 93.715 140.073 93 L 140.073 90 C 140.183 87.504 140.657 85.038 141.478 82.679 C 144.233 82.177 146.843 81.068 149.117 79.433 C 149.861 79.794 150.93 80.342 152.078 81.033" style="fill:none;stroke:#000;stroke-linejoin:round;stroke-width:2px"/>
    </g>
    <path d="M 86.26 55.781 C 85.724 55.781 85.39 55.221 85.657 54.774 C 85.688 54.723 85.725 54.676 85.768 54.635 L 104.488 36.571 C 104.873 36.212 105.518 36.391 105.647 36.892 C 105.705 37.117 105.639 37.355 105.472 37.521 L 86.753 55.584 C 86.622 55.71 86.445 55.782 86.26 55.781 Z" style=""/>
  </g>
  <path d="M 74.022 36.03 L 74.022 48.91 C 70.352 48.91 70.352 47.15 66.682 47.15 C 65.406 47.119 64.144 47.423 63.022 48.03 C 61.896 48.637 60.631 48.94 59.352 48.91 C 55.682 48.91 55.682 47.15 52.022 47.15 L 52.022 36.03 Z" style="fill:#bdfdff"/>
  <rect height="13" style="fill:#9bfbff" width="2" x="72.022" y="36.03"/>
  <rect height="26" style="fill:#006df0" width="2" x="72.022" y="49.03"/>
  <path d="M 63.121 47.832 C 64.243 47.225 65.505 46.921 66.781 46.952 C 70.451 46.952 70.451 48.712 74.121 48.712 L 74.121 74.832 L 52.276 74.798 L 52.121 46.952 C 55.781 46.952 55.781 48.712 59.451 48.712 C 60.73 48.742 61.995 48.439 63.121 47.832 Z" style="fill:#2488ff"/>
  <polygon points="70.022 27.03 56.022 27.03 56.022 19.03 69.022 19.03 70.022 27.03" style="fill: rgb(171, 174, 180);"/>
  <path d="M 69.772 25.03 L 66.022 25.03 C 62.208 25.033 58.808 22.628 57.542 19.03 L 69.022 19.03 Z" style="fill: rgb(216, 225, 239);"/>
  <rect height="5" style="fill:#acabb1" width="6" x="60.022" y="27.03"/>
  <rect height="2" style="fill:#57565c" width="6" x="60.022" y="27.03"/>
  <polygon points="66.022 32.03 69.022 32.03 69.022 36.03 65.022 36.03 65.022 32.03 66.022 32.03" style="fill:#e9e9ea"/>
  <polygon points="65.022 32.03 65.022 36.03 63.022 36.03 61.022 36.03 61.022 32.03 65.022 32.03" style="fill:#898890"/>
  <polygon points="61.022 32.03 61.022 36.03 57.022 36.03 57.022 32.03 60.022 32.03 61.022 32.03" style="fill:#e9e9ea"/>
  <polygon points="56.022 21.03 56.022 25.03 42.022 25.03 40.022 21.03 56.022 21.03" style="fill: rgb(171, 174, 180);"/>
  <g style="" transform="matrix(0.690073, 0, 0, 0.737798, 0.364436, 6.503618)">
    <g transform="matrix(1, 0, 0, 1, 30.467836, 14.883368)">
      <path d="M 32 33 C 32 36.079 28.667 38.004 26 36.464 C 24.762 35.75 24 34.429 24 33 C 24 30.79 28 23 28 23 C 28 23 32 30.79 32 33 Z" style="fill:#2488ff"/>
      <path d="M 28 23 L 27.994 23.012 C 29.178 25.477 31 29.508 31 31 C 31.007 34.071 27.687 35.999 25.023 34.47 C 24.669 34.266 24.348 34.009 24.071 33.708 C 24.648 36.733 28.283 37.999 30.614 35.987 C 31.483 35.237 31.988 34.149 32 33 C 32 30.79 28 23 28 23 Z" style="fill:#006df0"/>
      <path d="M 28 38 C 30.76 37.997 32.997 35.76 33 33 C 33 30.667 29.576 23.88 28.89 22.543 C 28.484 21.876 27.516 21.876 27.11 22.543 C 26.424 23.88 23 30.667 23 33 C 23.003 35.76 25.24 37.997 28 38 Z M 28 25.245 C 29.4 28.145 31 31.829 31 33 C 31 35.309 28.5 36.753 26.5 35.598 C 25.572 35.062 25 34.072 25 33 C 25 31.829 26.6 28.149 28 25.245 Z" style="fill:#231f20"/>
      <ellipse cx="26.5" cy="33" rx="0.5" ry="1" style="fill:#57a4ff"/>
    </g>
  </g>
  <path style="stroke: rgb(0, 0, 0); paint-order: stroke; fill: rgb(0, 94, 206); stroke-width: 0px;" d="M 63.112 48.021 L 62.814 67.59 L 64.899 65.107 L 65.098 47.823 L 63.112 48.021 Z"/>
  <ellipse cx="55.522" cy="54.03" rx="0.5" ry="1" style="fill:#57a4ff"/>
  <circle cx="59.022" cy="60.03" r="1" style="fill:#57a4ff"/>
  <ellipse cx="67.522" cy="53.03" rx="0.5" ry="1" style="fill:#bdfdff"/>
  <circle cx="69.022" cy="64.03" r="1" style="fill:#57a4ff"/>
  <circle cx="66.522" cy="57.53" r="0.5" style="fill:#bdfdff"/>
  <circle cx="67.522" cy="70.53" r="1.5" style="fill:#bdfdff"/>
  <rect height="33.507" rx="1" style="fill: url(#gradient-0); fill-opacity: 0.78;" width="2.651" x="54.022" y="39.03"/>
  <path d="M 74.022 35.03 L 70.022 35.03 L 70.022 32.03 C 70.022 31.478 69.574 31.03 69.022 31.03 L 67.022 31.03 L 67.022 28.03 L 70.022 28.03 C 70.623 28.03 71.089 27.503 71.014 26.906 L 70.014 18.906 C 69.951 18.406 69.526 18.03 69.022 18.03 L 56.022 18.03 C 55.47 18.03 55.022 18.478 55.022 19.03 L 55.022 20.03 L 40.022 20.03 C 39.279 20.03 38.795 20.812 39.127 21.477 L 41.127 25.477 C 41.296 25.816 41.643 26.03 42.022 26.03 L 55.022 26.03 L 55.022 27.03 C 55.022 27.582 55.47 28.03 56.022 28.03 L 59.022 28.03 L 59.022 31.03 L 57.022 31.03 C 56.47 31.03 56.022 31.478 56.022 32.03 L 56.022 35.03 L 52.022 35.03 C 51.47 35.03 51.022 35.478 51.022 36.03 L 51.022 67.03 C 51.022 67.03 50.89 76.006 51.056 75.979 L 74.022 76.03 C 74.574 76.03 75.022 75.582 75.022 75.03 L 75.022 36.03 C 75.022 35.478 74.574 35.03 74.022 35.03 Z M 73.022 47.852 C 72.239 47.749 71.482 47.504 70.787 47.128 C 69.527 46.456 68.115 46.119 66.687 46.15 C 65.784 46.134 64.884 46.262 64.022 46.53 L 64.022 37.03 L 73.022 37.03 L 73.022 47.852 Z M 62.022 33.03 L 64.022 33.03 L 64.022 35.03 L 62.022 35.03 L 62.022 33.03 Z M 68.022 35.03 L 66.022 35.03 L 66.022 33.03 L 68.022 33.03 L 68.022 35.03 Z M 42.64 24.03 L 41.64 22.03 L 55.022 22.03 L 55.022 24.03 L 42.64 24.03 Z M 57.022 25.03 L 57.022 20.03 L 68.139 20.03 L 68.889 26.03 L 57.022 26.03 L 57.022 25.03 Z M 61.022 28.03 L 65.022 28.03 L 65.022 31.03 L 61.022 31.03 L 61.022 28.03 Z M 58.022 33.03 L 60.022 33.03 L 60.022 35.03 L 58.022 35.03 L 58.022 33.03 Z M 57.022 37.03 L 62.022 37.03 L 62.022 47.39 C 61.182 47.762 60.27 47.94 59.352 47.91 C 58.225 47.941 57.11 47.672 56.122 47.13 C 55.159 46.62 54.106 46.305 53.022 46.202 L 53.022 37.03 L 57.022 37.03 Z M 73.022 74.03 L 53.022 74.003 L 53.022 48.208 C 53.804 48.311 54.56 48.556 55.254 48.931 C 56.514 49.604 57.926 49.942 59.354 49.91 C 60.258 49.926 61.159 49.798 62.022 49.53 L 62.022 67.03 L 64.022 64.944 L 64.022 48.668 C 64.86 48.297 65.771 48.12 66.687 48.15 C 67.815 48.118 68.932 48.388 69.922 48.93 C 70.885 49.439 71.938 49.754 73.022 49.858 L 73.022 74.03 Z" style="fill:#231f20"/>
  <path d="M 82.487 18.664 C 81.589 18.669 80.727 19.025 80.074 19.661 C 79.837 19.894 79.932 20.303 80.245 20.399 C 80.391 20.444 80.548 20.405 80.658 20.296 C 81.682 19.289 83.292 19.289 84.316 20.296 C 84.56 20.521 84.947 20.388 85.013 20.058 C 85.042 19.915 85 19.766 84.9 19.662 C 84.247 19.026 83.385 18.669 82.487 18.664 Z" style="fill: rgb(5, 147, 255);"/>
  <path d="M 82.487 20.417 C 81.936 20.419 81.401 20.603 80.96 20.943 C 80.698 21.145 80.747 21.564 81.048 21.697 C 81.187 21.758 81.347 21.738 81.469 21.644 C 82.072 21.177 82.902 21.177 83.505 21.644 C 83.766 21.847 84.142 21.681 84.181 21.346 C 84.199 21.19 84.135 21.037 84.014 20.943 C 83.573 20.603 83.037 20.419 82.487 20.417 Z" style="fill: rgb(5, 147, 255);"/>
  <circle cx="74.395" cy="27.864" r="2" style="fill: rgb(5, 147, 255);" transform="matrix(0.424224, 0, 0, 0.438257, 50.927315, 10.834617)"/>
  <g style="" transform="matrix(0.362965, 0, 0, 0.302989, 21.509354, 22.90873)">
    <path d="M 36.585 107.728 L 37.256 108.954 C 37.373 109.167 37.548 109.342 37.761 109.459 L 38.988 110.13 C 39.846 110.599 39.874 111.821 39.04 112.329 C 39.023 112.34 39.005 112.35 38.988 112.359 L 37.761 113.03 C 37.548 113.145 37.373 113.319 37.256 113.53 L 36.585 114.756 C 36.116 115.614 34.894 115.643 34.386 114.808 C 34.375 114.791 34.365 114.774 34.356 114.756 L 33.685 113.53 C 33.569 113.319 33.396 113.146 33.185 113.03 L 31.958 112.359 C 31.1 111.89 31.071 110.669 31.906 110.16 C 31.923 110.15 31.94 110.14 31.958 110.13 L 33.184 109.459 C 33.395 109.342 33.569 109.167 33.684 108.954 L 34.355 107.728 C 34.823 106.87 36.044 106.84 36.554 107.675 C 36.565 107.692 36.575 107.71 36.585 107.728 Z" style="fill:#fcbc86"/>
    <path d="M 15.918 95.428 L 15.044 97.028 C 14.892 97.305 14.664 97.533 14.387 97.685 L 12.787 98.559 C 11.671 99.171 11.636 100.762 12.725 101.423 C 12.745 101.435 12.766 101.447 12.787 101.459 L 14.387 102.332 C 14.664 102.484 14.892 102.712 15.044 102.99 L 15.918 104.59 C 16.531 105.706 18.122 105.74 18.782 104.652 C 18.795 104.631 18.807 104.611 18.818 104.59 L 19.691 102.99 C 19.843 102.712 20.071 102.484 20.349 102.332 L 21.949 101.459 C 23.065 100.846 23.1 99.255 22.011 98.595 C 21.991 98.582 21.97 98.57 21.949 98.559 L 20.349 97.685 C 20.071 97.533 19.843 97.305 19.691 97.028 L 18.818 95.428 C 18.205 94.312 16.614 94.277 15.954 95.366 C 15.941 95.386 15.93 95.407 15.918 95.428 Z" style="fill:#ffaf66"/>
    <path d="M 35.013 88.043 L 34.479 89.018 C 34.387 89.187 34.248 89.326 34.079 89.418 L 33.104 89.952 C 32.422 90.323 32.398 91.294 33.061 91.699 C 33.075 91.707 33.089 91.716 33.104 91.724 L 34.079 92.257 C 34.248 92.349 34.387 92.488 34.479 92.657 L 35.013 93.632 C 35.386 94.314 36.358 94.336 36.762 93.672 C 36.77 93.659 36.778 93.645 36.785 93.632 L 37.318 92.657 C 37.411 92.488 37.549 92.349 37.718 92.257 L 38.695 91.728 C 39.377 91.354 39.399 90.383 38.735 89.979 C 38.722 89.971 38.709 89.963 38.695 89.956 L 37.72 89.422 C 37.551 89.329 37.412 89.191 37.32 89.022 L 36.787 88.047 C 36.418 87.363 35.448 87.335 35.04 87.996 C 35.031 88.011 35.022 88.027 35.013 88.043 Z" style="fill:#fcbc86"/>
    <path d="M 39.622 107.753 L 39.196 107.52 L 38.962 107.093 C 37.491 104.405 33.662 104.318 32.07 106.935 C 32.038 106.987 32.008 107.04 31.979 107.093 L 31.746 107.52 L 31.32 107.753 C 28.632 109.224 28.544 113.053 31.162 114.645 C 31.214 114.677 31.266 114.707 31.32 114.736 L 31.746 114.969 L 31.979 115.396 C 33.451 118.084 37.281 118.17 38.872 115.551 C 38.903 115.5 38.933 115.449 38.962 115.396 L 39.196 114.969 L 39.622 114.736 C 42.309 113.266 42.397 109.437 39.78 107.844 C 39.728 107.813 39.675 107.782 39.622 107.753 Z M 38.182 112.104 L 37.237 112.621 C 37.072 112.711 36.937 112.846 36.847 113.01 L 36.33 113.956 C 35.967 114.618 35.025 114.639 34.633 113.994 C 34.625 113.982 34.618 113.969 34.611 113.956 L 34.094 113.01 C 34.004 112.846 33.869 112.711 33.705 112.621 L 32.759 112.104 C 32.097 111.742 32.076 110.799 32.721 110.407 C 32.733 110.4 32.746 110.392 32.759 110.385 L 33.705 109.868 C 33.869 109.778 34.004 109.643 34.094 109.478 L 34.611 108.533 C 34.972 107.872 35.913 107.849 36.306 108.492 C 36.314 108.505 36.322 108.519 36.33 108.533 L 36.847 109.478 C 36.937 109.643 37.072 109.778 37.237 109.868 L 38.182 110.385 C 38.843 110.746 38.866 111.688 38.223 112.08 C 38.209 112.089 38.196 112.097 38.182 112.104 Z" style="fill: rgb(35, 31, 32);"/>
    <path d="M 22.429 96.228 L 21.601 95.775 L 21.148 94.947 C 19.557 92.037 15.412 91.942 13.688 94.775 C 13.654 94.831 13.621 94.889 13.589 94.947 L 13.136 95.775 L 12.308 96.228 C 9.399 97.819 9.303 101.963 12.136 103.687 C 12.193 103.722 12.25 103.755 12.308 103.787 L 13.136 104.24 L 13.589 105.068 C 15.181 107.977 19.325 108.073 21.049 105.24 C 21.083 105.183 21.116 105.126 21.148 105.068 L 21.601 104.24 L 22.429 103.787 C 25.338 102.195 25.434 98.051 22.601 96.327 C 22.544 96.293 22.487 96.259 22.429 96.228 Z M 20.987 101.157 L 19.724 101.848 C 19.505 101.968 19.324 102.148 19.204 102.368 L 18.516 103.628 C 18.036 104.513 16.778 104.547 16.251 103.689 C 16.239 103.669 16.227 103.648 16.216 103.628 L 15.525 102.365 C 15.405 102.145 15.225 101.965 15.005 101.845 L 13.743 101.154 C 12.858 100.676 12.822 99.418 13.679 98.891 C 13.7 98.878 13.721 98.865 13.743 98.854 L 15.005 98.163 C 15.225 98.043 15.405 97.862 15.525 97.643 L 16.216 96.381 C 16.694 95.495 17.951 95.46 18.479 96.316 C 18.492 96.337 18.504 96.359 18.516 96.381 L 19.207 97.643 C 19.327 97.862 19.508 98.043 19.727 98.163 L 20.99 98.854 C 21.876 99.332 21.911 100.591 21.054 101.118 C 21.032 101.132 21.01 101.145 20.987 101.157 Z" style="fill: rgb(35, 31, 32);"/>
    <path d="M 39.542 87.508 L 39.342 87.398 L 39.231 87.198 C 37.823 84.634 34.167 84.556 32.651 87.058 C 32.623 87.104 32.596 87.151 32.57 87.198 L 32.46 87.398 L 32.26 87.508 C 29.696 88.916 29.619 92.572 32.12 94.088 C 32.166 94.116 32.213 94.143 32.26 94.169 L 32.46 94.28 L 32.57 94.48 C 33.979 97.044 37.634 97.121 39.15 94.619 C 39.178 94.573 39.205 94.527 39.231 94.48 L 39.342 94.28 L 39.542 94.169 C 42.106 92.76 42.183 89.104 39.682 87.588 C 39.636 87.561 39.589 87.534 39.542 87.508 Z M 38.103 91.537 L 37.334 91.957 C 37.2 92.03 37.091 92.14 37.018 92.274 L 36.597 93.042 C 36.299 93.581 35.529 93.595 35.212 93.067 C 35.207 93.059 35.202 93.05 35.197 93.042 L 34.777 92.274 C 34.704 92.14 34.594 92.03 34.461 91.957 L 33.692 91.537 C 33.153 91.239 33.139 90.469 33.667 90.151 C 33.675 90.146 33.684 90.141 33.692 90.137 L 34.461 89.717 C 34.594 89.644 34.704 89.534 34.777 89.401 L 35.197 88.632 C 35.495 88.093 36.265 88.079 36.582 88.606 C 36.587 88.615 36.592 88.623 36.597 88.632 L 37.018 89.401 C 37.091 89.534 37.201 89.644 37.334 89.717 L 38.103 90.137 C 38.642 90.435 38.656 91.205 38.128 91.522 C 38.12 91.527 38.112 91.532 38.103 91.537 Z" style="fill: rgb(35, 31, 32);"/>
  </g>
  <path opacity=".2" d="M 80.47 31.462 C 78.679 31.462 77.228 32.754 77.228 34.348 C 77.228 35.942 78.679 37.234 80.47 37.234 C 81.111 37.233 81.738 37.063 82.271 36.746 C 82.804 37.064 83.431 37.233 84.073 37.234 C 85.864 37.234 87.315 35.942 87.315 34.348 C 87.315 32.754 85.864 31.462 84.073 31.462 C 83.431 31.462 82.805 31.632 82.272 31.95 C 81.739 31.632 81.112 31.462 80.47 31.462 Z"/>
  <path d="M 80.47 31.141 C 78.679 31.141 77.228 32.433 77.228 34.027 C 77.228 35.621 78.679 36.913 80.47 36.913 C 81.111 36.913 81.738 36.743 82.271 36.425 C 82.804 36.743 83.431 36.913 84.073 36.913 C 85.864 36.913 87.315 35.621 87.315 34.027 C 87.315 32.433 85.864 31.141 84.073 31.141 C 83.431 31.142 82.805 31.312 82.272 31.629 C 81.739 31.312 81.112 31.142 80.47 31.141 Z" fill="#19979d"/>
  <path opacity=".2" d="M 80.423 32.744 C 80.195 32.744 79.967 32.785 79.755 32.865 C 79.544 32.944 79.35 33.062 79.187 33.21 C 79.023 33.358 78.892 33.535 78.803 33.73 C 78.714 33.925 78.669 34.136 78.669 34.347 C 78.669 34.559 78.714 34.769 78.803 34.964 C 78.892 35.159 79.023 35.336 79.187 35.484 C 79.35 35.632 79.544 35.75 79.755 35.829 C 79.962 35.907 80.184 35.947 80.407 35.949 C 80.413 35.949 80.418 35.949 80.423 35.949 C 80.966 35.972 81.403 35.781 81.723 35.502 C 81.942 35.312 82.114 35.087 82.271 34.858 C 82.429 35.087 82.601 35.312 82.82 35.502 C 83.14 35.781 83.577 35.972 84.12 35.949 C 84.125 35.949 84.13 35.949 84.135 35.949 C 84.359 35.947 84.581 35.907 84.787 35.829 C 84.999 35.75 85.193 35.632 85.356 35.484 L 85.357 35.482 C 85.52 35.334 85.651 35.159 85.74 34.964 C 85.829 34.769 85.874 34.559 85.874 34.347 C 85.874 34.136 85.829 33.925 85.74 33.73 L 85.737 33.727 C 85.648 33.533 85.518 33.357 85.356 33.21 C 85.193 33.062 84.999 32.944 84.787 32.865 C 84.576 32.785 84.348 32.744 84.12 32.744 C 83.548 32.744 83.096 32.953 82.762 33.245 C 82.57 33.413 82.413 33.605 82.271 33.802 C 82.129 33.605 81.973 33.413 81.78 33.245 C 81.447 32.953 80.995 32.744 80.423 32.744 Z M 80.489 33.386 C 80.895 33.386 81.154 33.508 81.392 33.71 C 81.582 33.871 81.747 34.089 81.911 34.327 C 81.724 34.605 81.543 34.86 81.339 35.032 C 81.115 35.222 80.883 35.326 80.503 35.308 L 80.489 35.308 C 80.344 35.308 80.197 35.282 80.064 35.234 C 79.933 35.186 79.812 35.114 79.712 35.026 L 79.707 35.023 C 79.606 34.934 79.525 34.826 79.471 34.711 C 79.417 34.596 79.389 34.471 79.389 34.347 C 79.389 34.223 79.417 34.097 79.471 33.982 C 79.525 33.867 79.606 33.76 79.707 33.671 L 79.711 33.667 C 79.812 33.579 79.933 33.508 80.064 33.46 C 80.197 33.411 80.344 33.386 80.489 33.386 Z M 84.054 33.386 C 84.199 33.386 84.345 33.411 84.479 33.46 C 84.61 33.508 84.731 33.579 84.831 33.667 L 84.835 33.671 C 84.936 33.76 85.018 33.867 85.072 33.982 C 85.126 34.097 85.153 34.222 85.153 34.346 C 85.153 34.47 85.126 34.596 85.072 34.711 C 85.018 34.826 84.936 34.934 84.835 35.023 L 84.831 35.026 C 84.731 35.113 84.61 35.185 84.479 35.233 C 84.345 35.282 84.199 35.308 84.054 35.308 L 84.04 35.308 C 83.66 35.326 83.428 35.221 83.204 35.032 C 83 34.859 82.819 34.605 82.632 34.327 C 82.796 34.089 82.961 33.87 83.15 33.71 C 83.389 33.507 83.648 33.385 84.054 33.385 Z M 83.712 33.706 L 83.712 34.027 L 83.352 34.027 L 83.352 34.669 L 83.712 34.669 L 83.712 34.989 L 84.433 34.989 L 84.433 34.669 L 84.793 34.669 L 84.793 34.027 L 84.433 34.027 L 84.433 33.706 L 83.712 33.706 Z M 79.75 34.027 L 79.75 34.669 L 81.191 34.669 L 81.191 34.027 L 79.75 34.027 Z"/>
  <path d="M 80.423 32.424 C 80.195 32.424 79.967 32.464 79.755 32.544 C 79.544 32.623 79.35 32.741 79.187 32.889 C 79.023 33.037 78.892 33.215 78.803 33.409 C 78.714 33.604 78.669 33.815 78.669 34.027 C 78.669 34.238 78.714 34.449 78.803 34.644 C 78.892 34.839 79.023 35.015 79.187 35.163 C 79.35 35.312 79.544 35.429 79.755 35.508 C 79.962 35.586 80.184 35.626 80.407 35.628 C 80.413 35.628 80.418 35.629 80.423 35.629 C 80.966 35.652 81.403 35.46 81.723 35.182 C 81.942 34.991 82.114 34.766 82.271 34.537 C 82.429 34.766 82.601 34.991 82.82 35.182 C 83.14 35.46 83.577 35.652 84.12 35.629 C 84.125 35.629 84.13 35.628 84.135 35.628 C 84.359 35.626 84.581 35.586 84.787 35.508 C 84.999 35.429 85.193 35.312 85.356 35.163 L 85.357 35.161 C 85.52 35.014 85.651 34.838 85.74 34.644 C 85.829 34.449 85.874 34.238 85.874 34.027 C 85.874 33.815 85.829 33.604 85.74 33.409 L 85.737 33.406 C 85.648 33.213 85.518 33.037 85.356 32.889 C 85.193 32.741 84.999 32.623 84.787 32.544 C 84.576 32.464 84.348 32.424 84.12 32.424 C 83.548 32.424 83.096 32.633 82.762 32.924 C 82.57 33.092 82.413 33.285 82.271 33.482 C 82.129 33.285 81.973 33.092 81.78 32.924 C 81.447 32.633 80.995 32.424 80.423 32.424 Z M 80.489 33.065 C 80.895 33.065 81.154 33.187 81.392 33.39 C 81.582 33.55 81.747 33.768 81.911 34.006 C 81.724 34.285 81.543 34.539 81.339 34.711 C 81.115 34.901 80.883 35.006 80.503 34.987 L 80.489 34.987 C 80.344 34.987 80.197 34.962 80.064 34.913 C 79.933 34.865 79.812 34.793 79.712 34.705 L 79.707 34.702 C 79.606 34.613 79.525 34.506 79.471 34.391 C 79.417 34.275 79.389 34.15 79.389 34.026 C 79.389 33.902 79.417 33.777 79.471 33.662 C 79.525 33.546 79.606 33.439 79.707 33.35 L 79.711 33.346 C 79.812 33.259 79.933 33.188 80.064 33.139 C 80.197 33.091 80.344 33.065 80.489 33.065 Z M 84.054 33.065 C 84.199 33.065 84.345 33.091 84.479 33.139 C 84.61 33.188 84.731 33.259 84.831 33.346 L 84.835 33.35 C 84.936 33.439 85.018 33.546 85.072 33.661 C 85.126 33.776 85.153 33.901 85.153 34.026 C 85.153 34.15 85.126 34.275 85.072 34.39 C 85.018 34.505 84.936 34.613 84.835 34.702 L 84.831 34.705 C 84.731 34.793 84.61 34.864 84.479 34.913 C 84.345 34.961 84.199 34.987 84.054 34.987 L 84.04 34.987 C 83.66 35.006 83.428 34.901 83.204 34.711 C 83 34.539 82.819 34.284 82.632 34.006 C 82.796 33.768 82.961 33.55 83.15 33.389 C 83.389 33.187 83.648 33.065 84.054 33.065 Z M 83.712 33.386 L 83.712 33.706 L 83.352 33.706 L 83.352 34.348 L 83.712 34.348 L 83.712 34.669 L 84.433 34.669 L 84.433 34.348 L 84.793 34.348 L 84.793 33.706 L 84.433 33.706 L 84.433 33.386 L 83.712 33.386 Z M 79.75 33.706 L 79.75 34.348 L 81.191 34.348 L 81.191 33.706 L 79.75 33.706 Z" fill="#79ff88"/>
  <path opacity=".2" d="M 80.47 31.141 C 78.679 31.141 77.228 32.433 77.228 34.027 C 77.229 34.072 77.232 34.118 77.235 34.163 C 77.345 32.644 78.76 31.462 80.47 31.462 C 81.112 31.462 81.739 31.632 82.272 31.95 C 82.805 31.633 83.431 31.462 84.073 31.462 C 85.802 31.464 87.226 32.674 87.307 34.212 C 87.312 34.15 87.315 34.089 87.315 34.027 C 87.315 32.433 85.864 31.141 84.073 31.141 C 83.431 31.142 82.805 31.312 82.272 31.629 C 81.739 31.312 81.112 31.142 80.47 31.141 Z" style="fill: rgb(155, 251, 255);"/>
  <g transform="matrix(0.199107, 0, 0, 0.18614, 60.146111, 54.919415)" style=""/>
</svg>